# xmcd
#
# Track frame offsets:
#	150
#	19120
#	38634
#	61094
#	83801
#	101693
#	120296
#	143696
#	161059
#	179382
#	206066
#	241765
#
# Disc length: 3644 seconds
#
# Revision: 0
# Processed by: cddbd v1.4PL0 Copyright (c) Steve Scherf et al.
# Submitted via: EasyCDDAExtractor 4.6.9.1
#
DISCID=920e3a0c
DTITLE=Raymond Froggatt - ADAOS
DYEAR=1900
DGENRE=Country
TTITLE0=Funny how the days go by
TTITLE1=Cool summer air
TTITLE2=Mud in your eyes
TTITLE3=Bold Guitars
TTITLE4=I'll tell you why
TTITLE5=Land of love
TTITLE6=Youthful days
TTITLE7=Pocket full of sand
TTITLE8=Cool me a fool
TTITLE9=For ever yours
TTITLE10=Till we cross over
TTITLE11=500 miles to the sun
EXTD=
EXTT0=
EXTT1=
EXTT2=
EXTT3=
EXTT4=
EXTT5=
EXTT6=
EXTT7=
EXTT8=
EXTT9=
EXTT10=
EXTT11=
PLAYORDER=
